<svg xmlns="http://www.w3.org/2000/svg" version="1.1" height="144" width="608" viewBox="0 0 608 144" class="diagram" text-anchor="middle" font-family="monospace" font-size="13px" stroke-linecap="round">
<text class="ascii" display="none"><![CDATA[
  ___                   _          _____       _   _ _____ ___________   _
 / _ \                 | |        / __  \     | | | |_   _|_   _| ___ \ | |
/ /_\ \_ __   __ _  ___| |__   ___`' / /______| |_| | | |   | | | |_/ __| |
|  _  | '_ \ / _` |/ __| '_ \ / _ \ / /|______|  _  | | |   | | |  __/ _` |
| | | | |_) | (_| | (__| | | |  __./ /___     | | | | | |   | | | | | (_| |
\_| |_| .__/ \__,_|\___|_| |_|\___\_____/     \_| |_/ \_/   \_/ \_|  \__,_|
      | |
      |_|
]]></text>
<path d="M 8,64 L 8,80" fill="none" stroke="black"/>
<path d="M 24,72 L 24,104" fill="none" stroke="black"/>
<path d="M 40,72 L 40,104" fill="none" stroke="black"/>
<path d="M 56,56 L 56,136" fill="none" stroke="black"/>
<path d="M 72,72 L 72,136" fill="none" stroke="black"/>
<path d="M 136,72 L 136,88" fill="none" stroke="black"/>
<path d="M 152,56 L 152,104" fill="none" stroke="black"/>
<path d="M 192,24 L 192,104" fill="none" stroke="black"/>
<path d="M 208,24 L 208,104" fill="none" stroke="black"/>
<path d="M 224,72 L 224,104" fill="none" stroke="black"/>
<path d="M 240,80 L 240,104" fill="none" stroke="black"/>
<path d="M 320,56 L 320,72" fill="none" stroke="black"/>
<path d="M 376,24 L 376,80" fill="none" stroke="black"/>
<path d="M 392,24 L 392,56" fill="none" stroke="black"/>
<path d="M 392,72 L 392,104" fill="none" stroke="black"/>
<path d="M 408,24 L 408,56" fill="none" stroke="black"/>
<path d="M 408,72 L 408,104" fill="none" stroke="black"/>
<path d="M 424,24 L 424,80" fill="none" stroke="black"/>
<path d="M 440,40 L 440,80" fill="none" stroke="black"/>
<path d="M 456,40 L 456,80" fill="none" stroke="black"/>
<path d="M 472,24 L 472,40" fill="none" stroke="black"/>
<path d="M 488,40 L 488,80" fill="none" stroke="black"/>
<path d="M 504,40 L 504,80" fill="none" stroke="black"/>
<path d="M 520,24 L 520,80" fill="none" stroke="black"/>
<path d="M 536,40 L 536,56" fill="none" stroke="black"/>
<path d="M 536,72 L 536,104" fill="none" stroke="black"/>
<path d="M 552,72 L 552,80" fill="none" stroke="black"/>
<path d="M 584,24 L 584,88" fill="none" stroke="black"/>
<path d="M 600,24 L 600,104" fill="none" stroke="black"/>
<path d="M 36,40 L 44,56" fill="none" stroke="black"/>
<path d="M 44,24 L 60,56" fill="none" stroke="black"/>
<path d="M 92,56 L 104,80" fill="none" stroke="black"/>
<path d="M 228,56 L 240,80" fill="none" stroke="black"/>
<path d="M 276,88 L 284,104" fill="none" stroke="black"/>
<path d="M 276,56 L 280,64" fill="none" stroke="black"/>
<path d="M 324,24 L 328,32" fill="none" stroke="black"/>
<path d="M 564,24 L 568,32" fill="none" stroke="black"/>
<path d="M 8,48 L 20,24" fill="none" stroke="black"/>
<path d="M 20,56 L 28,40" fill="none" stroke="black"/>
<path d="M 104,80 L 116,56" fill="none" stroke="black"/>
<path d="M 152,80 L 164,56" fill="none" stroke="black"/>
<path d="M 240,80 L 252,56" fill="none" stroke="black"/>
<path d="M 280,32 L 284,24" fill="none" stroke="black"/>
<path d="M 288,80 L 308,40" fill="none" stroke="black"/>
<path d="M 300,88 L 320,48" fill="none" stroke="black"/>
<path d="M 548,56 L 556,40" fill="none" stroke="black"/>
<path d="M 552,80 L 564,56" fill="none" stroke="black"/>
<path d="M 20,24 L 44,24" fill="none" stroke="black"/>
<path d="M 284,24 L 324,24" fill="none" stroke="black"/>
<path d="M 424,24 L 472,24" fill="none" stroke="black"/>
<path d="M 472,24 L 564,24" fill="none" stroke="black"/>
<path d="M 288,40 L 308,40" fill="none" stroke="black"/>
<path d="M 532,40 L 556,40" fill="none" stroke="black"/>
<path d="M 72,56 L 92,56" fill="none" stroke="black"/>
<path d="M 116,56 L 132,56" fill="none" stroke="black"/>
<path d="M 164,56 L 192,56" fill="none" stroke="black"/>
<path d="M 208,56 L 228,56" fill="none" stroke="black"/>
<path d="M 252,56 L 276,56" fill="none" stroke="black"/>
<path d="M 320,56 L 376,56" fill="none" stroke="black"/>
<path d="M 564,56 L 584,56" fill="none" stroke="black"/>
<path d="M 172,72 L 192,72" fill="none" stroke="black"/>
<path d="M 320,72 L 376,72" fill="none" stroke="black"/>
<path d="M 536,72 L 556,72" fill="none" stroke="black"/>
<path d="M 172,88 L 192,88" fill="none" stroke="black"/>
<path d="M 260,88 L 280,88" fill="none" stroke="black"/>
<path d="M 300,88 L 332,88" fill="none" stroke="black"/>
<path d="M 72,104 L 92,104" fill="none" stroke="black"/>
<path d="M 116,104 L 132,104" fill="none" stroke="black"/>
<path d="M 164,104 L 192,104" fill="none" stroke="black"/>
<path d="M 252,104 L 284,104" fill="none" stroke="black"/>
<path d="M 284,104 L 324,104" fill="none" stroke="black"/>
<path d="M 564,104 L 580,104" fill="none" stroke="black"/>
<g class="text">
<text x="200" y="20">_</text>
<text x="384" y="20">_</text>
<text x="416" y="20">_</text>
<text x="592" y="20">_</text>
<text x="32" y="36">_</text>
<text x="432" y="36">_</text>
<text x="464" y="36">_</text>
<text x="480" y="36">_</text>
<text x="512" y="36">_</text>
<text x="32" y="52">_</text>
<text x="64" y="52">_</text>
<text x="144" y="52">_</text>
<text x="284" y="52">`'</text>
<text x="400" y="52">_</text>
<text x="544" y="52">_</text>
<text x="32" y="68">_</text>
<text x="76" y="68">'_</text>
<text x="132" y="68">_`</text>
<text x="216" y="68">_</text>
<text x="264" y="68">_</text>
<text x="400" y="68">_</text>
<text x="576" y="68">_</text>
<text x="84" y="84">_)</text>
<text x="124" y="84">(_</text>
<text x="168" y="84">(</text>
<text x="280" y="84">.</text>
<text x="572" y="84">(_</text>
<text x="12" y="100">\_</text>
<text x="48" y="100">_</text>
<text x="104" y="100">/ \</text>
<text x="140" y="100">,_</text>
<text x="160" y="100">\</text>
<text x="200" y="100">_</text>
<text x="232" y="100">_</text>
<text x="248" y="100">\</text>
<text x="328" y="100">/</text>
<text x="380" y="100">\_</text>
<text x="436" y="100">_/ \_/</text>
<text x="508" y="100">\_/ \_</text>
<text x="560" y="100">\</text>
<text x="588" y="100">,_</text>
<text x="64" y="132">_</text>
</g>
<g class="source" fill="#D42029" font-size="12px">
<text x="26" y="22">_</text><text x="34" y="22">_</text><text x="42" y="22">_</text><text x="202" y="22">_</text><text x="290" y="22">_</text><text x="298" y="22">_</text><text x="306" y="22">_</text><text x="314" y="22">_</text><text x="322" y="22">_</text><text x="386" y="22">_</text><text x="418" y="22">_</text><text x="434" y="22">_</text><text x="442" y="22">_</text><text x="450" y="22">_</text><text x="458" y="22">_</text><text x="466" y="22">_</text><text x="482" y="22">_</text><text x="490" y="22">_</text><text x="498" y="22">_</text><text x="506" y="22">_</text><text x="514" y="22">_</text><text x="522" y="22">_</text><text x="530" y="22">_</text><text x="538" y="22">_</text><text x="546" y="22">_</text><text x="554" y="22">_</text><text x="562" y="22">_</text><text x="594" y="22">_</text><text x="18" y="38">/</text><text x="34" y="38">_</text><text x="50" y="38">\</text><text x="194" y="38">|</text><text x="210" y="38">|</text><text x="282" y="38">/</text><text x="298" y="38">_</text><text x="306" y="38">_</text><text x="330" y="38">\</text><text x="378" y="38">|</text><text x="394" y="38">|</text><text x="410" y="38">|</text><text x="426" y="38">|</text><text x="434" y="38">_</text><text x="466" y="38">_</text><text x="474" y="38">|</text><text x="482" y="38">_</text><text x="514" y="38">_</text><text x="522" y="38">|</text><text x="538" y="38">_</text><text x="546" y="38">_</text><text x="554" y="38">_</text><text x="570" y="38">\</text><text x="586" y="38">|</text><text x="602" y="38">|</text><text x="10" y="54">/</text><text x="26" y="54">/</text><text x="34" y="54">_</text><text x="42" y="54">\</text><text x="58" y="54">\</text><text x="66" y="54">_</text><text x="82" y="54">_</text><text x="90" y="54">_</text><text x="122" y="54">_</text><text x="130" y="54">_</text><text x="146" y="54">_</text><text x="170" y="54">_</text><text x="178" y="54">_</text><text x="186" y="54">_</text><text x="194" y="54">|</text><text x="210" y="54">|</text><text x="218" y="54">_</text><text x="226" y="54">_</text><text x="258" y="54">_</text><text x="266" y="54">_</text><text x="274" y="54">_</text><text x="282" y="54">`</text><text x="290" y="54">'</text><text x="306" y="54">/</text><text x="322" y="54">/</text><text x="330" y="54">_</text><text x="338" y="54">_</text><text x="346" y="54">_</text><text x="354" y="54">_</text><text x="362" y="54">_</text><text x="370" y="54">_</text><text x="378" y="54">|</text><text x="394" y="54">|</text><text x="402" y="54">_</text><text x="410" y="54">|</text><text x="426" y="54">|</text><text x="442" y="54">|</text><text x="458" y="54">|</text><text x="490" y="54">|</text><text x="506" y="54">|</text><text x="522" y="54">|</text><text x="538" y="54">|</text><text x="546" y="54">_</text><text x="554" y="54">/</text><text x="570" y="54">_</text><text x="578" y="54">_</text><text x="586" y="54">|</text><text x="602" y="54">|</text><text x="10" y="70">|</text><text x="34" y="70">_</text><text x="58" y="70">|</text><text x="74" y="70">'</text><text x="82" y="70">_</text><text x="98" y="70">\</text><text x="114" y="70">/</text><text x="130" y="70">_</text><text x="138" y="70">`</text><text x="154" y="70">|</text><text x="162" y="70">/</text><text x="178" y="70">_</text><text x="186" y="70">_</text><text x="194" y="70">|</text><text x="210" y="70">'</text><text x="218" y="70">_</text><text x="234" y="70">\</text><text x="250" y="70">/</text><text x="266" y="70">_</text><text x="282" y="70">\</text><text x="298" y="70">/</text><text x="314" y="70">/</text><text x="322" y="70">|</text><text x="330" y="70">_</text><text x="338" y="70">_</text><text x="346" y="70">_</text><text x="354" y="70">_</text><text x="362" y="70">_</text><text x="370" y="70">_</text><text x="378" y="70">|</text><text x="402" y="70">_</text><text x="426" y="70">|</text><text x="442" y="70">|</text><text x="458" y="70">|</text><text x="490" y="70">|</text><text x="506" y="70">|</text><text x="522" y="70">|</text><text x="546" y="70">_</text><text x="554" y="70">_</text><text x="562" y="70">/</text><text x="578" y="70">_</text><text x="586" y="70">`</text><text x="602" y="70">|</text><text x="10" y="86">|</text><text x="26" y="86">|</text><text x="42" y="86">|</text><text x="58" y="86">|</text><text x="74" y="86">|</text><text x="82" y="86">_</text><text x="90" y="86">)</text><text x="106" y="86">|</text><text x="122" y="86">(</text><text x="130" y="86">_</text><text x="138" y="86">|</text><text x="154" y="86">|</text><text x="170" y="86">(</text><text x="178" y="86">_</text><text x="186" y="86">_</text><text x="194" y="86">|</text><text x="210" y="86">|</text><text x="226" y="86">|</text><text x="242" y="86">|</text><text x="266" y="86">_</text><text x="274" y="86">_</text><text x="282" y="86">.</text><text x="290" y="86">/</text><text x="306" y="86">/</text><text x="314" y="86">_</text><text x="322" y="86">_</text><text x="330" y="86">_</text><text x="378" y="86">|</text><text x="394" y="86">|</text><text x="410" y="86">|</text><text x="426" y="86">|</text><text x="442" y="86">|</text><text x="458" y="86">|</text><text x="490" y="86">|</text><text x="506" y="86">|</text><text x="522" y="86">|</text><text x="538" y="86">|</text><text x="554" y="86">|</text><text x="570" y="86">(</text><text x="578" y="86">_</text><text x="586" y="86">|</text><text x="602" y="86">|</text><text x="10" y="102">\</text><text x="18" y="102">_</text><text x="26" y="102">|</text><text x="42" y="102">|</text><text x="50" y="102">_</text><text x="58" y="102">|</text><text x="74" y="102">.</text><text x="82" y="102">_</text><text x="90" y="102">_</text><text x="98" y="102">/</text><text x="114" y="102">\</text><text x="122" y="102">_</text><text x="130" y="102">_</text><text x="138" y="102">,</text><text x="146" y="102">_</text><text x="154" y="102">|</text><text x="162" y="102">\</text><text x="170" y="102">_</text><text x="178" y="102">_</text><text x="186" y="102">_</text><text x="194" y="102">|</text><text x="202" y="102">_</text><text x="210" y="102">|</text><text x="226" y="102">|</text><text x="234" y="102">_</text><text x="242" y="102">|</text><text x="250" y="102">\</text><text x="258" y="102">_</text><text x="266" y="102">_</text><text x="274" y="102">_</text><text x="282" y="102">\</text><text x="290" y="102">_</text><text x="298" y="102">_</text><text x="306" y="102">_</text><text x="314" y="102">_</text><text x="322" y="102">_</text><text x="330" y="102">/</text><text x="378" y="102">\</text><text x="386" y="102">_</text><text x="394" y="102">|</text><text x="410" y="102">|</text><text x="418" y="102">_</text><text x="426" y="102">/</text><text x="442" y="102">\</text><text x="450" y="102">_</text><text x="458" y="102">/</text><text x="490" y="102">\</text><text x="498" y="102">_</text><text x="506" y="102">/</text><text x="522" y="102">\</text><text x="530" y="102">_</text><text x="538" y="102">|</text><text x="562" y="102">\</text><text x="570" y="102">_</text><text x="578" y="102">_</text><text x="586" y="102">,</text><text x="594" y="102">_</text><text x="602" y="102">|</text><text x="58" y="118">|</text><text x="74" y="118">|</text><text x="58" y="134">|</text><text x="66" y="134">_</text><text x="74" y="134">|</text></g></svg>
